<?xml version="1.0" encoding="UTF-8"?>
<svg version="1.1" xmlns="http://www.w3.org/2000/svg" width="800" height="800">
<path d="M0 0 C24.44629006 21.39680839 40.27517536 52.18512271 43.69921875 84.5546875 C45.95824744 119.94613694 36.77971275 155.30422282 13.43066406 182.72558594 C4.2968926 193.08439972 -5.45363686 201.92295336 -17.0546875 209.41015625 C-17.98023438 210.03148437 -18.90578125 210.6528125 -19.859375 211.29296875 C-46.08063591 227.85767465 -80.90694078 233.17935023 -111.1796875 226.91015625 C-132.52514412 221.85937372 -151.18365782 212.25818193 -168.0546875 198.41015625 C-168.87839844 197.74113281 -169.70210938 197.07210937 -170.55078125 196.3828125 C-176.50512113 191.33658685 -181.2960749 185.57588548 -186.0546875 179.41015625 C-186.71210938 178.59160156 -187.36953125 177.77304687 -188.046875 176.9296875 C-208.54696557 150.37836537 -217.32612191 115.59075623 -213.55859375 82.41796875 C-209.5531005 52.76040258 -196.90442037 26.79937993 -176.0546875 5.41015625 C-175.42433594 4.70632813 -174.79398437 4.0025 -174.14453125 3.27734375 C-129.00955208 -45.72634792 -47.78588574 -40.8619321 0 0 Z " fill="#198F38" transform="translate(485.0546875,301.58984375)"/>
<path d="M0 0 C1.23078233 1.03975718 2.46022221 2.08110855 3.6875 3.125 C4.6775 3.785 5.6675 4.445 6.6875 5.125 C6.996875 3.990625 7.30625 2.85625 7.625 1.6875 C8.6875 -1.875 8.6875 -1.875 9.6875 -2.875 C11.66369447 -3.00014928 13.64488173 -3.0507276 15.625 -3.0625 C16.70652344 -3.07667969 17.78804687 -3.09085937 18.90234375 -3.10546875 C21.6875 -2.875 21.6875 -2.875 23.6875 -0.875 C23.94287109 2.0390625 23.94287109 2.0390625 23.9609375 5.75 C23.98125829 7.11068483 24.00210958 8.47136183 24.0234375 9.83203125 C24.04585129 11.966701 24.06243354 14.10105862 24.06835938 16.23583984 C24.10457186 23.97987906 24.25852078 30.87459311 27.71240234 37.99951172 C29.34923689 41.56743398 29.94422959 45.28476953 30.6875 49.125 C34.3175 49.455 37.9475 49.785 41.6875 50.125 C41.6875 59.695 41.6875 69.265 41.6875 79.125 C35.7475 79.62 35.7475 79.62 29.6875 80.125 C29.605 81.40375 29.5225 82.6825 29.4375 84 C29.06255429 87.58423264 28.27672664 90.19471484 26.68359375 93.41015625 C23.71832586 100.57899428 24.04673472 108.06124406 24 115.6875 C23.97091156 117.89269245 23.93647848 120.09767983 23.89750671 122.30271912 C23.86492439 124.27923012 23.84675221 126.25596311 23.8293457 128.23266602 C23.6875 131.125 23.6875 131.125 22.6875 132.125 C20.54877792 132.41307277 18.40040157 132.63114083 16.25 132.8125 C14.48849609 132.97298828 14.48849609 132.97298828 12.69140625 133.13671875 C9.6875 133.125 9.6875 133.125 7.6875 131.125 C7.28702556 128.80224823 6.9477896 126.46760643 6.6875 124.125 C5.52347656 125.08599609 5.52347656 125.08599609 4.3359375 126.06640625 C-15.23913316 141.8871857 -35.35535493 147.0716488 -60.3125 145.125 C-74.94846367 143.28454948 -88.50608203 135.93115449 -99.3125 126.125 C-100.14394531 125.38636719 -100.97539062 124.64773438 -101.83203125 123.88671875 C-111.80425634 114.52722639 -118.93334252 103.07356762 -123.3125 90.125 C-123.63089844 89.21492188 -123.94929688 88.30484375 -124.27734375 87.3671875 C-130.12087178 67.17066204 -127.24320583 43.81173654 -117.6875 25.25 C-106.87347864 5.80752246 -89.67093486 -7.63505084 -68.3125 -13.75 C-44.62294858 -19.7483159 -19.36472292 -14.96081013 0 0 Z " fill="#198E38" transform="translate(447.3125,333.875)"/>
<path d="M0 0 C1.23078233 1.03975718 2.46022221 2.08110855 3.6875 3.125 C4.6775 3.785 5.6675 4.445 6.6875 5.125 C6.996875 3.990625 7.30625 2.85625 7.625 1.6875 C8.6875 -1.875 8.6875 -1.875 9.6875 -2.875 C11.66369447 -3.00014928 13.64488173 -3.0507276 15.625 -3.0625 C16.70652344 -3.07667969 17.78804687 -3.09085937 18.90234375 -3.10546875 C21.6875 -2.875 21.6875 -2.875 23.6875 -0.875 C23.94287109 2.0390625 23.94287109 2.0390625 23.9609375 5.75 C23.98125829 7.11068483 24.00210958 8.47136183 24.0234375 9.83203125 C24.04585129 11.966701 24.06243354 14.10105862 24.06835938 16.23583984 C24.10457186 23.97987906 24.25852078 30.87459311 27.71240234 37.99951172 C29.34923689 41.56743398 29.94422959 45.28476953 30.6875 49.125 C34.3175 49.455 37.9475 49.785 41.6875 50.125 C41.6875 59.695 41.6875 69.265 41.6875 79.125 C35.7475 79.62 35.7475 79.62 29.6875 80.125 C29.605 81.40375 29.5225 82.6825 29.4375 84 C29.06255429 87.58423264 28.27672664 90.19471484 26.68359375 93.41015625 C23.71832586 100.57899428 24.04673472 108.06124406 24 115.6875 C23.97091156 117.89269245 23.93647848 120.09767983 23.89750671 122.30271912 C23.86492439 124.27923012 23.84675221 126.25596311 23.8293457 128.23266602 C23.6875 131.125 23.6875 131.125 22.6875 132.125 C20.54877792 132.41307277 18.40040157 132.63114083 16.25 132.8125 C14.48849609 132.97298828 14.48849609 132.97298828 12.69140625 133.13671875 C9.6875 133.125 9.6875 133.125 7.6875 131.125 C7.28702556 128.80224823 6.9477896 126.46760643 6.6875 124.125 C5.52347656 125.08599609 5.52347656 125.08599609 4.3359375 126.06640625 C-15.23913316 141.8871857 -35.35535493 147.0716488 -60.3125 145.125 C-74.94846367 143.28454948 -88.50608203 135.93115449 -99.3125 126.125 C-100.14394531 125.38636719 -100.97539062 124.64773438 -101.83203125 123.88671875 C-111.80425634 114.52722639 -118.93334252 103.07356762 -123.3125 90.125 C-123.63089844 89.21492188 -123.94929688 88.30484375 -124.27734375 87.3671875 C-130.12087178 67.17066204 -127.24320583 43.81173654 -117.6875 25.25 C-106.87347864 5.80752246 -89.67093486 -7.63505084 -68.3125 -13.75 C-44.62294858 -19.7483159 -19.36472292 -14.96081013 0 0 Z M-97.3125 19.125 C-110.4337808 35.16781597 -115.19329784 53.71196434 -113.3125 74.125 C-110.78798685 93.16040949 -100.64312672 107.39627636 -86.3125 119.5625 C-73.04062938 129.66841096 -55.81761685 133.51445743 -39.375 131.6875 C-21.08195967 128.38875502 -5.59751992 119.55494602 5.625 104.53125 C17.20699701 87.15825448 20.71387245 67.5946022 16.625 47.125 C12.89349375 33.935759 6.29666522 24.51004475 -3.3125 15.125 C-4.29863281 14.10792969 -4.29863281 14.10792969 -5.3046875 13.0703125 C-16.45482161 2.30301561 -32.30824462 -2.47763822 -47.5 -2.375 C-48.49813721 -2.36927979 -49.49627441 -2.36355957 -50.5246582 -2.35766602 C-68.75892016 -1.9224353 -84.76518116 5.83704081 -97.3125 19.125 Z " fill="#F1F2EC" transform="translate(447.3125,333.875)"/>
<path d="M0 0 C16.28079867 13.22814892 28.55095281 31.84489716 31 53 C31.45476164 65.60929997 27.97858208 76.2632015 19.890625 85.96875 C15.17178167 91.03858168 9.95516476 95.45525907 4 99 C3.34 99 2.68 99 2 99 C2.33 99.99 2.66 100.98 3 102 C3.06740865 103.56118428 3.08514456 105.1250252 3.0625 106.6875 C3.05347656 107.49574219 3.04445313 108.30398438 3.03515625 109.13671875 C3.02355469 109.75160156 3.01195312 110.36648438 3 111 C2.01 111 1.02 111 0 111 C-4.62695342 98.96992111 -6.31234899 78.05769119 -1.75390625 65.87109375 C-0.05212208 62.6679665 1.80956916 59.88882908 4 57 C4.82982692 55.78594453 5.65244395 54.56693757 6.46875 53.34375 C8.58910644 50.18592303 10.77397232 47.08413359 13 44 C7.69895703 47.63500089 3.43336703 51.49107519 -0.65234375 56.4609375 C-1.09707031 56.96882813 -1.54179687 57.47671875 -2 58 C-2.33 58 -2.66 58 -3 58 C-3.40820882 47.90817093 -2.16108676 38.00400644 -1 28 C-1.81919421 31.01905791 -2.62911767 34.04053079 -3.4375 37.0625 C-3.66759766 37.91005859 -3.89769531 38.75761719 -4.13476562 39.63085938 C-6.20050034 47.3848491 -7.14455323 54.94169865 -7.5625 62.9375 C-7.60568359 63.71673828 -7.64886719 64.49597656 -7.69335938 65.29882812 C-7.79828077 67.19907117 -7.8995245 69.09951669 -8 71 C-10.32771579 68.72160022 -12.50545765 66.44903777 -14.5 63.875 C-16.77991392 61.25309899 -17.9599881 60.35254767 -21 59 C-20.61142822 59.50112305 -20.22285645 60.00224609 -19.82250977 60.51855469 C-10.12783287 73.31709536 -5.95371523 82.8769232 -7 99 C-16.18568024 95.87817629 -24.00654942 87.14091811 -29 79 C-34.70261019 66.53423321 -35.43046458 54.95058879 -31 42 C-27.01778221 32.31115452 -22.02615346 23.80683717 -15 16 C-13.86498047 14.70449219 -13.86498047 14.70449219 -12.70703125 13.3828125 C-8.61743658 8.76574917 -4.41720534 4.30394367 0 0 Z " fill="#F1F1EC" transform="translate(400,343)"/>
<path d="M0 0 C0.33 0 0.66 0 1 0 C1.05422947 1.4370809 1.09289723 2.87475462 1.125 4.3125 C1.14820313 5.11300781 1.17140625 5.91351563 1.1953125 6.73828125 C1 9 1 9 -1 12 C-1.99 11.67 -2.98 11.34 -4 11 C-4 8.03 -4 5.06 -4 2 C-2.68 2 -1.36 2 0 2 C0 1.34 0 0.68 0 0 Z " fill="#148631" transform="translate(396,425)"/>
<path d="M0 0 C1.17487036 0.75827092 2.33972592 1.53207755 3.5 2.3125 C4.47453125 2.95638672 4.47453125 2.95638672 5.46875 3.61328125 C5.9740625 4.07089844 6.479375 4.52851563 7 5 C7 5.99 7 6.98 7 8 C5.1875 7.8125 5.1875 7.8125 3 7 C0 2.82142857 0 2.82142857 0 0 Z " fill="#2D9144" transform="translate(378,400)"/>
<path d="M0 0 C1.32 0.33 2.64 0.66 4 1 C4 3.64 4 6.28 4 9 C3.34 7.68 2.68 6.36 2 5 C1.01 5.495 1.01 5.495 0 6 C0 4.02 0 2.04 0 0 Z " fill="#13872E" transform="translate(393,392)"/>
</svg>
