<svg xmlns="http://www.w3.org/2000/svg" viewBox="0 0 100 100">
  <circle cx="50" cy="50" r="50" fill="#2E7D32"/>
  <g fill="white">
    <path d="M65 50c0 8.284-6.716 15-15 15-8.284 0-15-6.716-15-15 0-8.284 6.716-15 15-15 8.284 0 15 6.716 15 15z"/>
    <path d="M73 50c0 12.703-10.297 23-23 23-12.703 0-23-10.297-23-23 0-12.703 10.297-23 23-23 12.703 0 23 10.297 23 23zm-4 0c0-10.494-8.506-19-19-19s-19 8.506-19 19 8.506 19 19 19 19-8.506 19-19z"/>
    <path d="M50 35l-8 12h16l-8-12zm-2 8l2-3 2 3h-4z"/>
  </g>
</svg>